<svg width="35" height="49" viewBox="0 0 35 49" fill="none" xmlns="http://www.w3.org/2000/svg">
<mask id="path-1-inside-1_205_106" fill="white">
<path fill-rule="evenodd" clip-rule="evenodd" d="M18 0.583496C7.32321 0.583496 0.673828 8.62715 0.673828 18.9328C0.673828 29.1582 7.36527 36.6977 14.4645 45.6697C15.5711 46.1611 16.796 48.8578 18.018 48.8578C19.2399 48.8578 20.429 46.1611 21.5356 45.6697C30.9821 33.4817 34.7483 29.1582 34.7483 18.9328C34.7483 8.62257 28.6769 0.583496 18 0.583496ZM10.75 16.0683C10.75 18.4058 13.5655 20.8739 15.6873 22.4047C16.7023 23.1358 17.2098 23.5002 18 23.5002C18.7927 23.5002 19.2978 23.1335 20.3128 22.4025C22.4346 20.8762 25.25 18.4081 25.25 16.0706C25.25 12.0991 21.2625 10.6164 18 13.685C14.7375 10.6164 10.75 12.0991 10.75 16.0706"/>
</mask>
<path fill-rule="evenodd" clip-rule="evenodd" d="M18 0.583496C7.32321 0.583496 0.673828 8.62715 0.673828 18.9328C0.673828 29.1582 7.36527 36.6977 14.4645 45.6697C15.5711 46.1611 16.796 48.8578 18.018 48.8578C19.2399 48.8578 20.429 46.1611 21.5356 45.6697C30.9821 33.4817 34.7483 29.1582 34.7483 18.9328C34.7483 8.62257 28.6769 0.583496 18 0.583496ZM10.75 16.0683C10.75 18.4058 13.5655 20.8739 15.6873 22.4047C16.7023 23.1358 17.2098 23.5002 18 23.5002C18.7927 23.5002 19.2978 23.1335 20.3128 22.4025C22.4346 20.8762 25.25 18.4081 25.25 16.0706C25.25 12.0991 21.2625 10.6164 18 13.685C14.7375 10.6164 10.75 12.0991 10.75 16.0706" fill="#FF8F05"/>
<path d="M14.4645 45.6697L13.6803 46.2902L13.8333 46.4836L14.0586 46.5837L14.4645 45.6697ZM18.018 48.8578L18.018 49.8578L18.018 48.8578ZM21.5356 45.6697L21.9414 46.5837L22.1717 46.4815L22.326 46.2823L21.5356 45.6697ZM15.6873 22.4047L15.1022 23.2157L15.1029 23.2162L15.6873 22.4047ZM20.3128 22.4025L19.7289 21.5907L19.7284 21.591L20.3128 22.4025ZM18 13.685L17.3149 14.4134L18 15.0578L18.6852 14.4134L18 13.685ZM18 -0.416504C12.3945 -0.416504 7.78911 1.7027 4.59293 5.22113C1.40612 8.72925 -0.326172 13.5673 -0.326172 18.9328H1.67383C1.67383 13.9927 3.26623 9.65604 6.07332 6.56592C8.87104 3.48612 12.9288 1.5835 18 1.5835V-0.416504ZM-0.326172 18.9328C-0.326172 24.2812 1.42865 28.8999 4.04853 33.2842C6.65204 37.6411 10.1584 41.8392 13.6803 46.2902L15.2487 45.0492C11.6713 40.5282 8.28238 36.4705 5.76537 32.2583C3.26473 28.0735 1.67383 23.8098 1.67383 18.9328H-0.326172ZM14.0586 46.5837C14.1279 46.6144 14.2924 46.734 14.5712 47.0439C14.8383 47.3409 15.099 47.681 15.4217 48.0784C15.7214 48.4475 16.073 48.8632 16.4521 49.1881C16.8137 49.4979 17.3501 49.8578 18.018 49.8578V47.8578C18.0749 47.8578 17.9999 47.8806 17.7536 47.6695C17.5247 47.4734 17.2718 47.1841 16.9743 46.8177C16.6997 46.4795 16.3702 46.0533 16.0582 45.7064C15.7579 45.3726 15.3544 44.9707 14.8703 44.7558L14.0586 46.5837ZM18.018 49.8578C18.6878 49.8578 19.2227 49.4961 19.5824 49.1845C19.9586 48.8584 20.3059 48.4416 20.601 48.0727C20.919 47.675 21.1752 47.3356 21.4383 47.0396C21.7131 46.7306 21.8747 46.6133 21.9414 46.5837L21.1298 44.7558C20.6432 44.9718 20.2413 45.3759 19.9436 45.7108C19.6344 46.0586 19.3094 46.4855 19.0391 46.8234C18.7459 47.1901 18.4975 47.4781 18.2726 47.673C18.031 47.8824 17.9591 47.8578 18.018 47.8578V49.8578ZM22.326 46.2823C27.02 40.2261 30.3908 36.0166 32.5619 32.0449C34.7703 28.0049 35.7483 24.2009 35.7483 18.9328H33.7483C33.7483 23.8901 32.8432 27.3605 30.807 31.0856C28.7333 34.8791 25.4977 38.9254 20.7452 45.0571L22.326 46.2823ZM35.7483 18.9328C35.7483 13.5882 34.1743 8.75299 31.1344 5.2377C28.0798 1.7054 23.6097 -0.416504 18 -0.416504V1.5835C23.0672 1.5835 26.9713 3.48113 29.6216 6.54592C32.2866 9.62772 33.7483 13.9671 33.7483 18.9328H35.7483ZM9.75005 16.0683C9.75005 17.6136 10.6606 19.0507 11.6725 20.1999C12.712 21.3805 14.0137 22.4304 15.1022 23.2157L16.2724 21.5938C15.239 20.8483 14.0721 19.8987 13.1735 18.8782C12.2472 17.8262 11.75 16.8605 11.75 16.0683H9.75005ZM15.1029 23.2162C16.0526 23.9002 16.8285 24.5002 18 24.5002V22.5002C17.5911 22.5002 17.352 22.3714 16.2717 21.5933L15.1029 23.2162ZM18 24.5002C19.1751 24.5002 19.9503 23.8959 20.8972 23.2139L19.7284 21.591C18.6453 22.3711 18.4104 22.5002 18 22.5002V24.5002ZM20.8967 23.2143C21.9858 22.4309 23.2877 21.382 24.3275 20.2018C25.3395 19.053 26.25 17.6159 26.25 16.0706H24.25C24.25 16.8628 23.7529 17.8284 22.8268 18.8797C21.9283 19.8995 20.7616 20.8478 19.7289 21.5907L20.8967 23.2143ZM26.25 16.0706C26.25 13.7261 25.0431 11.9356 23.174 11.2922C21.3364 10.6597 19.1472 11.2332 17.3149 12.9565L18.6852 14.4134C20.1154 13.0682 21.5512 12.8488 22.523 13.1833C23.4632 13.507 24.25 14.4436 24.25 16.0706H26.25ZM18.6852 12.9565C16.8529 11.2332 14.6637 10.6597 12.8261 11.2922C10.957 11.9356 9.75005 13.7261 9.75005 16.0706H11.75C11.75 14.4436 12.5369 13.507 13.4771 13.1833C14.4489 12.8488 15.8847 13.0682 17.3149 14.4134L18.6852 12.9565Z" fill="#9BA196" mask="url(#path-1-inside-1_205_106)"/>
</svg>
