<svg width="35" height="25" viewBox="0 0 35 25" fill="none" xmlns="http://www.w3.org/2000/svg">
<path d="M1.45831 15.2081V9.79184C1.45831 9.0183 1.7656 8.27643 2.31258 7.72945C2.85957 7.18247 3.60143 6.87518 4.37498 6.87518H8.60415C8.88928 6.87511 9.16814 6.79145 9.40623 6.63455L18.1562 0.865385C18.3761 0.720603 18.631 0.638028 18.894 0.626419C19.157 0.61481 19.4182 0.6746 19.65 0.799446C19.8817 0.924293 20.0753 1.10954 20.2103 1.33554C20.3453 1.56153 20.4166 1.81985 20.4166 2.08309V22.9168C20.4166 23.1801 20.3453 23.4384 20.2103 23.6644C20.0753 23.8904 19.8817 24.0756 19.65 24.2005C19.4182 24.3253 19.157 24.3851 18.894 24.3735C18.631 24.3619 18.3761 24.2793 18.1562 24.1346L9.40623 18.3654C9.16814 18.2085 8.88928 18.1248 8.60415 18.1248H4.37498C3.60143 18.1248 2.85957 17.8175 2.31258 17.2705C1.7656 16.7235 1.45831 15.9816 1.45831 15.2081Z" stroke="black"/>
<path d="M25.5208 5.9375C25.5208 5.9375 27.7083 8.125 27.7083 11.7708C27.7083 15.4167 25.5208 17.6042 25.5208 17.6042M29.8958 1.5625C29.8958 1.5625 33.5416 5.20833 33.5416 11.7708C33.5416 18.3333 29.8958 21.9792 29.8958 21.9792" stroke="black" stroke-linecap="round" stroke-linejoin="round"/>
</svg>
