<svg width="31" height="27" viewBox="0 0 31 27" fill="none" xmlns="http://www.w3.org/2000/svg">
<path d="M24.1666 16.3102L27.0833 13.2788M27.0833 13.2788L30 10.2473M27.0833 13.2788L24.1666 10.2473M27.0833 13.2788L30 16.3102" stroke="black" stroke-linecap="round" stroke-linejoin="round"/>
<path d="M0.833313 16.0935V10.4641C0.833313 9.6601 1.1406 8.88904 1.68758 8.32054C2.23457 7.75203 2.97643 7.43265 3.74998 7.43265H7.97915C8.26428 7.43258 8.54314 7.34563 8.78123 7.18256L17.5312 1.18637C17.7511 1.03589 18.006 0.950064 18.269 0.937998C18.532 0.925932 18.7932 0.988075 19.025 1.11783C19.2567 1.24759 19.4503 1.44013 19.5853 1.67502C19.7203 1.90991 19.7916 2.1784 19.7916 2.45199V24.1056C19.7916 24.3792 19.7203 24.6477 19.5853 24.8825C19.4503 25.1174 19.2567 25.31 19.025 25.4397C18.7932 25.5695 18.532 25.6316 18.269 25.6196C18.006 25.6075 17.7511 25.5217 17.5312 25.3712L8.78123 19.375C8.54314 19.2119 8.26428 19.125 7.97915 19.1249H3.74998C2.97643 19.1249 2.23457 18.8055 1.68758 18.237C1.1406 17.6685 0.833313 16.8975 0.833313 16.0935Z" stroke="black"/>
</svg>
