<svg width="31" height="31" viewBox="0 0 31 31" fill="none" xmlns="http://www.w3.org/2000/svg">
<path d="M15.8017 0.900391C7.5217 0.900391 0.801697 7.62039 0.801697 15.9004C0.801697 24.1804 7.5217 30.9004 15.8017 30.9004C24.0817 30.9004 30.8017 24.1804 30.8017 15.9004C30.8017 7.62039 24.0817 0.900391 15.8017 0.900391ZM22.7617 11.1004C22.5367 13.4704 21.5617 19.2304 21.0667 21.8854C20.8567 23.0104 20.4367 23.3854 20.0467 23.4304C19.1767 23.5054 18.5167 22.8604 17.6767 22.3054C16.3567 21.4354 15.6067 20.8954 14.3317 20.0554C12.8467 19.0804 13.8067 18.5404 14.6617 17.6704C14.8867 17.4454 18.7267 13.9504 18.8017 13.6354C18.8121 13.5877 18.8107 13.5381 18.7977 13.4911C18.7846 13.444 18.7602 13.4009 18.7267 13.3654C18.6367 13.2904 18.5167 13.3204 18.4117 13.3354C18.2767 13.3654 16.1767 14.7604 12.0817 17.5204C11.4817 17.9254 10.9417 18.1354 10.4617 18.1204C9.9217 18.1054 8.9017 17.8204 8.1367 17.5654C7.1917 17.2654 6.4567 17.1004 6.5167 16.5754C6.5467 16.3054 6.9217 16.0354 7.6267 15.7504C12.0067 13.8454 14.9167 12.5854 16.3717 11.9854C20.5417 10.2454 21.3967 9.94539 21.9667 9.94539C22.0867 9.94539 22.3717 9.97539 22.5517 10.1254C22.7017 10.2454 22.7467 10.4104 22.7617 10.5304C22.7467 10.6204 22.7767 10.8904 22.7617 11.1004Z" fill="black"/>
</svg>
